<?xml version="1.0" encoding="UTF-8"?>
<svg id="Layer_2" data-name="Layer 2" xmlns="http://www.w3.org/2000/svg" viewBox="0 0 233.54 202.21">
  <defs>
    <style>
      .cls-1 {
        fill: #30977e;
        stroke-width: 0px;
      }

      .cls-2 {
        fill: none;
        stroke: #c3e0be;
        stroke-miterlimit: 10;
        stroke-width: 2px;
      }
    </style>
  </defs>
  <g id="Layer_1-2" data-name="Layer 1">
    <path class="cls-2" d="M10.83,46.27c-22.56,39.35-6.41,125.38,49.68,140.53,59.65,16.11,93.27,19.38,116.68,6.43,15.89-8.79,23.29-22.45,29.98-33.02,15.94-25.2,33.22-70.42,20.01-101.24C200.64-2.97,46.86-16.56,10.83,46.27Z"/>
    <path class="cls-1" d="M12.51,40.95c-22.56,39.35-6.41,125.38,49.68,140.53,59.65,16.11,93.27,19.38,116.68,6.43,15.89-8.79,23.29-22.45,29.98-33.02,15.94-25.2,33.22-70.42,20.01-101.24C202.32-8.29,48.54-21.88,12.51,40.95Z"/>
  </g>
</svg>