<?xml version="1.0" encoding="UTF-8"?>
<svg id="Layer_2" data-name="Layer 2" xmlns="http://www.w3.org/2000/svg" viewBox="0 0 285.47 192.95">
  <defs>
    <style>
      .cls-1 {
        fill: none;
        stroke: #20291c;
        stroke-miterlimit: 10;
        stroke-width: 2px;
      }

      .cls-2 {
        fill: #8a6b38;
        stroke-width: 0px;
      }
    </style>
  </defs>
  <g id="Layer_1-2" data-name="Layer 1">
    <path class="cls-2" d="M277.96,92.97c0,51.2-65.1,108.23-138.97,92.7C28.57,162.46-.89,143.54.02,92.97.95,41.21,67.78,13.71,75.15,10.66,100.39.26,123.83-.63,138.99.27c59.48,3.52,138.97,43.21,138.97,92.7Z"/>
    <path class="cls-1" d="M284.47,96.65c0,51.2-65.1,108.23-138.97,92.7C35.07,166.14,5.61,147.22,6.53,96.65,7.46,44.89,74.29,17.39,81.66,14.35c25.23-10.41,48.67-11.3,63.84-10.4,59.48,3.52,138.97,43.21,138.97,92.7Z"/>
  </g>
</svg>