<?xml version="1.0" encoding="UTF-8"?>
<svg id="Layer_2" data-name="Layer 2" xmlns="http://www.w3.org/2000/svg" viewBox="0 0 285.47 192.95">
  <defs>
    <style>
      .cls-1 {
        fill: none;
        stroke: #20291c;
        stroke-miterlimit: 10;
        stroke-width: 2px;
      }

      .cls-2 {
        fill: #8a6b38;
        stroke-width: 0px;
      }
    </style>
  </defs>
  <g id="Layer_1-2" data-name="Layer 1">
    <g>
      <path class="cls-1" d="M1,96.65c0,51.2,65.1,108.23,138.97,92.7,110.42-23.21,139.88-42.13,138.97-92.7-.93-51.76-67.76-79.26-75.13-82.3-25.23-10.41-48.67-11.3-63.84-10.4C80.49,7.47,1,47.16,1,96.65Z"/>
      <path class="cls-2" d="M7.5,92.97c0,51.2,65.1,108.23,138.97,92.7,110.42-23.21,139.88-42.13,138.97-92.7-.93-51.76-67.76-79.26-75.13-82.3C185.08.26,161.64-.63,146.48.27,86.99,3.79,7.5,43.48,7.5,92.97Z"/>
    </g>
  </g>
</svg>