<?xml version="1.0" encoding="UTF-8"?>
<svg id="Layer_2" data-name="Layer 2" xmlns="http://www.w3.org/2000/svg" viewBox="0 0 233.54 202.21">
  <defs>
    <style>
      .cls-1 {
        fill: #2f977e;
        stroke-width: 0px;
      }

      .cls-2 {
        fill: none;
        stroke: #c3e0be;
        stroke-miterlimit: 10;
        stroke-width: 2px;
      }
    </style>
  </defs>
  <g id="Layer_1-2" data-name="Layer 1">
    <path class="cls-1" d="M221.03,40.95c22.56,39.35,6.41,125.38-49.68,140.53-59.65,16.11-93.27,19.38-116.68,6.43-15.89-8.79-23.29-22.45-29.98-33.02C8.75,129.69-8.52,84.48,4.69,53.65,31.23-8.29,185.01-21.88,221.03,40.95Z"/>
    <path class="cls-2" d="M222.71,46.27c22.56,39.35,6.41,125.38-49.68,140.53-59.65,16.11-93.27,19.38-116.68,6.43-15.89-8.79-23.29-22.45-29.98-33.02C10.43,135.01-6.84,89.79,6.37,58.97,32.91-2.97,186.69-16.56,222.71,46.27Z"/>
  </g>
</svg>