<?xml version="1.0" encoding="UTF-8"?>
<svg id="Layer_2" data-name="Layer 2" xmlns="http://www.w3.org/2000/svg" viewBox="0 0 229.85 206.57">
  <defs>
    <style>
      .cls-1 {
        fill: #2f977e;
        stroke-width: 0px;
      }

      .cls-2 {
        fill: none;
        stroke: #c3e0be;
        stroke-miterlimit: 10;
        stroke-width: 2px;
      }
    </style>
  </defs>
  <g id="Layer_1-2" data-name="Layer 1">
    <path class="cls-1" d="M225.59,108.12c6.15,22.2,4.04,32.72,3.3,35.91-8.38,36.37-54.36,58.85-91.26,62.11-50.46,4.45-94.15-26.14-113.86-59.23-5.51-9.25-18.22-30.58-11.11-51.22,5.49-15.95,19.43-21.64,42.26-35.45C118.49,21.78,115.33,2.41,138.61,2.57c43.46.3,76.58,67.99,86.99,105.55Z"/>
    <path class="cls-2" d="M216.04,106.55c6.15,22.2,4.04,32.72,3.3,35.91-8.38,36.37-54.36,58.85-91.26,62.11-50.46,4.45-94.15-26.14-113.86-59.23-5.51-9.25-18.22-30.58-11.11-51.22,5.49-15.95,19.43-21.64,42.26-35.45C108.94,20.21,105.78.84,129.05,1c43.46.3,76.58,67.99,86.99,105.55Z"/>
  </g>
</svg>